<svg xmlns="http://www.w3.org/2000/svg" direction="ltr" width="207.4617491923691" height="197.0013969862248" viewBox="-3761.4149950273886 -3646.456950497396 207.4617491923691 197.0013969862248" stroke-linecap="round" stroke-linejoin="round" style="background-color: transparent;" encoding="UTF-8&quot;"><defs/><g transform="matrix(1, 0, 0, 1, -3729.415, -3481.457)" opacity="1"><path d="M1.1733,-1.8718 Q2.3465,-1.8407 3.423,-1.8299 T5.6229,-1.8038 7.9454,-1.765 10.4257,-1.709 13.0238,-1.6449 15.675,-1.5858 18.3347,-1.5389 21.024,-1.4976 23.7682,-1.4563 26.81,-1.3978 30.2867,-1.3302 33.8897,-1.2807 37.4232,-1.2445 40.7033,-1.2181 43.7496,-1.1989 46.8997,-1.185 50.3243,-1.1749 53.7786,-1.1675 56.9064,-1.17 59.7947,-1.1855 62.6225,-1.2079 65.3196,-1.2463 67.866,-1.2989 70.312,-1.3531 72.6077,-1.4138 74.7873,-1.4752 76.9966,-1.52 79.2766,-1.5469 81.5952,-1.5628 83.8849,-1.5792 86.0794,-1.6042 88.2356,-1.6289 90.3935,-1.6484 92.5047,-1.6695 94.5518,-1.6937 96.4958,-1.7238 99.1039,-1.7829 102.2445,-1.8658 105.0997,-1.9416 107.9881,-1.9946 111.057,-2.0227 114.3442,-2.0261 117.8319,-2.0125 121.2688,-2.0079 124.562,-2.0166 127.7665,-2.0297 130.7499,-2.0542 133.3202,-2.0952 135.5172,-2.1427 137.4913,-2.1873 139.4467,-2.2385 141.4877,-2.3063 141.6085,-1.172 140.9003,-11.1208 141.2504,-47.3751 141.5317,-102.7554 141.7069,-133.2683 141.8776,-133.7725 142.2003,-134.1959 142.6413,-134.494 143.1544,-134.6357 143.6859,-134.6061 144.1801,-134.4084 144.5853,-134.0632 144.8591,-133.6067 144.9728,-133.0867 144.9145,-132.5576 144.6903,-132.0748 144.3236,-131.6889 143.853,-131.4403 143.3275,-131.3549 142.8024,-131.4418 142.3325,-131.6919 141.967,-132.0789 141.7442,-132.5623 141.6875,-133.0916 141.8027,-133.6113 142.0779,-134.067 142.4841,-134.4109 142.9789,-134.6072 143.5105,-134.6352 144.0232,-134.4919 144.4633,-134.1925 144.7847,-133.7682 144.9538,-133.2635 144.997,-132.9975 145.0469,-102.7507 145.1794,-47.3618 145.3465,-11.11 143.9739,1.172 141.4877,2.3063 139.4467,2.2385 137.4913,2.1873 135.5172,2.1427 133.3202,2.0952 130.7499,2.0542 127.7665,2.0297 124.562,2.0166 121.2688,2.0079 117.8319,2.0125 114.3442,2.0261 111.057,2.0227 107.9881,1.9946 105.0997,1.9416 102.2445,1.8658 99.1039,1.7829 96.4958,1.7238 94.5518,1.6937 92.5047,1.6695 90.3935,1.6484 88.2356,1.6289 86.0794,1.6042 83.8849,1.5792 81.5952,1.5628 79.2766,1.5469 76.9966,1.52 74.7873,1.4752 72.6077,1.4138 70.312,1.3531 67.866,1.2989 65.3196,1.2463 62.6225,1.2079 59.7947,1.1855 56.9064,1.17 53.7786,1.1675 50.3243,1.1749 46.8997,1.185 43.7496,1.1989 40.7033,1.2181 37.4232,1.2445 33.8897,1.2807 30.2867,1.3302 26.81,1.3978 23.7682,1.4563 21.024,1.4976 18.3347,1.5389 15.675,1.5858 13.0238,1.6449 10.4257,1.709 7.9454,1.765 5.6229,1.8038 3.423,1.8299 1.1733,1.8718 -0.3641,1.8304 -1.0369,1.5517 -1.5518,1.0368 -1.8304,0.364 -1.8304,-0.3642 -1.5517,-1.037 -1.0367,-1.5518 -0.3639,-1.8305 0.0001,-1.9029 1.1733,-1.8718 Z" fill="#1d1d1d" stroke-linecap="round"/></g><g transform="matrix(-1, 0, 0, -1, -3585.9532, -3614.4556)" opacity="1"><path d="M1.1733,-1.8713 Q2.3465,-1.8402 3.4253,-1.8292 T5.6264,-1.8031 7.9496,-1.7643 10.4325,-1.708 13.0321,-1.6439 15.684,-1.5849 18.3464,-1.5377 21.0418,-1.4956 23.7869,-1.4545 26.8293,-1.397 30.3108,-1.3296 33.9188,-1.2803 37.4573,-1.2442 40.74,-1.2179 43.7855,-1.1988 46.9374,-1.1849 50.3654,-1.1748 53.8215,-1.1674 56.9525,-1.1697 59.8448,-1.1845 62.6794,-1.206 65.3802,-1.2442 67.9286,-1.297 70.3802,-1.3509 72.6812,-1.4115 74.8638,-1.473 77.0725,-1.5184 79.3521,-1.5456 81.6727,-1.5616 83.9635,-1.5781 86.1587,-1.6033 88.3175,-1.6278 90.4791,-1.6471 92.5923,-1.6682 94.6382,-1.6928 96.5816,-1.7232 99.1932,-1.7821 102.3368,-1.8651 105.1974,-1.9408 108.0887,-1.994 111.1596,-2.0222 114.4542,-2.0251 117.9477,-2.0112 121.3853,-2.007 124.6787,-2.0159 127.889,-2.0288 130.8754,-2.0533 133.4453,-2.0946 135.6432,-2.1422 137.6179,-2.1868 139.5772,-2.2381 141.6243,-2.306 141.7455,-1.1719 141.0341,-11.1207 141.3825,-47.375 141.6626,-102.7554 141.8371,-133.2683 142.0077,-133.7725 142.3304,-134.1958 142.7713,-134.4939 143.2844,-134.6356 143.8158,-134.606 144.31,-134.4083 144.7152,-134.0632 144.989,-133.6067 145.1027,-133.0867 145.0444,-132.5577 144.8202,-132.0749 144.4536,-131.689 143.983,-131.4404 143.4576,-131.355 142.9325,-131.4419 142.4626,-131.6919 142.0971,-132.0789 141.8743,-132.5623 141.8176,-133.0916 141.9328,-133.6112 142.2079,-134.0669 142.6141,-134.4108 143.1089,-134.607 143.6404,-134.635 144.1531,-134.4918 144.5931,-134.1924 144.9146,-133.7682 145.0837,-133.2635 145.1269,-132.9975 145.1775,-102.7508 145.3111,-47.362 145.4798,-11.1101 144.1106,1.1719 141.6243,2.306 139.5772,2.2381 137.6179,2.1868 135.6432,2.1422 133.4453,2.0946 130.8754,2.0533 127.889,2.0288 124.6787,2.0159 121.3853,2.007 117.9477,2.0112 114.4542,2.0251 111.1596,2.0222 108.0887,1.994 105.1974,1.9408 102.3368,1.8651 99.1932,1.7821 96.5816,1.7232 94.6382,1.6928 92.5923,1.6682 90.4791,1.6471 88.3175,1.6278 86.1587,1.6033 83.9635,1.5781 81.6727,1.5616 79.3521,1.5456 77.0725,1.5184 74.8638,1.473 72.6812,1.4115 70.3802,1.3509 67.9286,1.297 65.3802,1.2442 62.6794,1.206 59.8448,1.1845 56.9525,1.1697 53.8215,1.1674 50.3654,1.1748 46.9374,1.1849 43.7855,1.1988 40.74,1.2179 37.4573,1.2442 33.9188,1.2803 30.3108,1.3296 26.8293,1.397 23.7869,1.4545 21.0418,1.4956 18.3464,1.5377 15.684,1.5849 13.0321,1.6439 10.4325,1.708 7.9496,1.7643 5.6264,1.8031 3.4253,1.8292 1.1733,1.8713 -0.364,1.8299 -1.0366,1.5513 -1.5514,1.0365 -1.8299,0.3639 -1.8299,-0.3641 -1.5512,-1.0367 -1.0364,-1.5514 -0.3638,-1.8299 0.0001,-1.9023 1.1733,-1.8713 Z" fill="#1d1d1d" stroke-linecap="round"/></g></svg>