<svg width="26" height="64" viewBox="0 0 26 64" fill="none" xmlns="http://www.w3.org/2000/svg">
  <style>
    @media (prefers-color-scheme: dark) {
      svg {
        background: white;
      }
    }
  </style>
  <rect x="6.54333" y="45.0708" width="14.57" height="5.69314" rx="2.84657" fill="#9AC02E"/>
  <path d="M0.596436 30.8378C0.596436 39.4962 6.69202 44.2404 9.36816 45.0707H19.1806C21.262 44.1218 31.0746 33.4472 21.4108 20.6376C12.7751 9.19087 15.9098 7.94667 18.4373 0C10.2602 6.04896 0.596436 19.926 0.596436 30.8378Z" fill="#1E2407"/>
  <path d="M0.596436 30.8378C1.83347 32 5.60303 34.0089 10.0873 31.5695C14.5716 29.13 18.0696 27.982 19.9252 27.982C21.7807 27.982 23.7909 29.417 25.5532 30.8378C25.3231 27.7242 24.1485 24.2666 21.4108 20.6376C12.7751 9.19087 15.9098 7.94667 18.4373 0C10.2602 6.04896 0.596436 19.926 0.596436 30.8378Z" fill="#2A9FF4"/>
  <path d="M4.92603 64C5.88424 54.4947 8.71895 51.2383 10.0165 50.7982H17.802C18.8501 51.1456 21.8445 54.2724 23.7909 64H4.92603Z" fill="#B15500"/>
</svg>
