<svg xmlns="http://www.w3.org/2000/svg" width="1082" preserveAspectRatio="none" height="14" stroke-linecap="round" stroke-linejoin="round" viewBox="720 681 1082 14">
  <path fill="#1d1d1d" d="M731.69 684.406q.838-.002 2.422-.033t3.126-.067 3.092-.065 3.118-.037 2.982-.006 2.929.012 3.177.021 3.552.038 4.06.063 3.993.047 3.601.012 3.78.02 4.427.016 4.224 0 3.534-.003 3.341-.01 3.366-.009 3.465-.002 3.19-.014 3.048-.017 2.99-.016 2.823-.019 2.95-.01 3.372.012 3.642.025 3.454.009 3.18-.009 3.428.007 3.847.026 3.867.022 4.188.04 4.571.058 4.149.017 3.63-.02 3.729-.01 3.494-.018 3.879.046 4.894.099 4.952.048 4.34-.008 3.908-.038 4.062-.02 4.727.057 5.213.095 4.964.028 4.297-.04 4.341-.017 5.06.036 5.277.047 5.491.067 5.763.074 5.417.008 3.912-.02 2.861.013 3.012.029 2.969.019 2.822-.001 4.234.005 4.447.031 4.179-.003 5.375-.026 5.76.016 4.394.014 4.929.1 4.94.083 3.891-.08 4.714-.116 4.858-.071 5.204-.02 5.045-.027 3.922-.004 4.434.045 5.509.006 4.061-.006 3.988-.01 5.019-.038 4.627-.053 4.642-.026 4.277.073 4.11.03 4.456-.072 4.67-.033 4.944-.006 4.441-.041 4.271-.043 4.3-.03 3.706-.053 3.513-.05 3.575-.034 3.546-.015 3.833 0 3.631-.024 3.45-.027 3.431-.023 3.468-.015 3.537-.006 3.689.002 3.988.015 4.029.015 3.79-.001 3.497-.016 3.697.005 4.154.03 4.74.064 4.891.058 4.642.022 4.949.043 5.268.056 5.124.028 3.927.024 3.928.018 3.974.02 3.966.014 4.11.03 3.71-.004 4.607-.046 4.343-.046 3.844-.065 4.486-.01 4.634-.001 3.905-.046 3.69-.044 3.593-.04 3.525-.035 3.858-.012 4.016 0 3.999 0 4.196.014 4.31.015 4.12 0 4.059-.005 4.542.035 5.096.068 5.235.061 4.943.021 3.685.012 3.857.021 4.623-.02 4.553-.019 4.823.01 4.773.004 4.35-.03 3.693-.059 3.602-.048 3.599-.04 3.463-.037 3.517-.027 3.618-.017 3.46-.019 3.44-.016 3.816.007 4.377.073 4.989.1 4.738.027 4.255-.017 4.602.018 4.945.037 4.447-.01 3.478.01 3.96.043 4.686-.007 4.616-.003 4.872.015 4.273-.027 3.66-.048 3.626-.042 3.562-.046 3.35-.045 3.126-.044 3.253-.03 3.408-.014 3.253-.02 3.003-.027 2.997-.022 3.271-.007 3.344 0 3.38.011 3.535.014 3.633.007 3.47-.003 3.419-.005 3.822.018 4.103.033 4.17.029 4.141.02 4.076.01 4.407.036 4.311.024 3.966-.003 4.243.014 3.952-.012 3.229-.046 3.133-.04 3.145-.033 3-.031 3.139-.02 3.508.001 3.793.024 3.75.016 3.728.004 4.038.036 3.613.078 4.04.08 3.994.063 2.828.05 2.87.046 2.887.041 3.05.056 3.368.088 3.235.055 2.989.01 2.95.005 3.404.072 3.434.062 4.392-.028 5.834-.028 5.904-.01 4.828.048 4.38-.009 4.314-.018 3.53.064 3.269.016 3.112-.009 4.236-.05 4.1-.055 3.984-.047 4.112-.023 3.248.044 3.162.026 2.943-.007 4.376-.01 5.853-.005 5.898.002 5.923.005 4.532.012 4.03-.039 3.901-.047 4.283.001 5.284-.036 4.577-.08 4.197-.08 4.196-.06 4.097-.049 4.14-.036 3.839-.04 3.286-.058 3.344-.043 3.2-.027 3.78-.005 4.087.003 3.634 0 3.798.006 3.942.013 4.091.02 4.074.013 3.755-.008 3.701-.009 3.493-.016 3.564-.007 3.877.012 3.405-.015 2.958.031 3.828.075 4.523.027 3.458.024 1.83.107.97.327.815.62.575.847.274.986-.056 1.023-.379.951-.663.78-.877.528-1 .22-1.018-.11-.93-.43-.743-.705-.48-.905-.165-1.01.166-1.01.48-.905.743-.704.93-.43 1.018-.11 1 .22.877.528.663.78.378.952.055 1.022-.274.987-.575.847-.815.62-.97.326-.512.084-1.317.023-3.458.024-4.523.027-3.828.075-2.958.031-3.405-.015-3.877.011-3.564-.007-3.493-.015-3.701-.01-3.755-.008-4.074.014-4.091.02-3.942.012-3.801.005-3.64-.006-4.13-.028-3.773-.06-3.155-.053-3.344-.044-3.286-.058-3.84-.04-4.14-.035-4.096-.05-4.196-.059-4.197-.08-4.577-.08-5.284-.036-4.283 0-3.901-.046-4.03-.04-4.532.012-5.924.006-5.897.002-5.853-.006-4.376-.01-2.943-.006-3.162.026-3.248.044-4.112-.024-3.984-.046-4.1-.056-4.236-.05-3.112-.008-3.27.015-3.529.065-4.314-.018-4.38-.01-4.828.049-5.904-.01-5.834-.028-4.392-.028-3.434.062-3.405.072-2.95.004-2.988.011-3.235.055-3.368.088-3.05.056-2.886.04-2.871.047-2.829.05-3.993.062-4.04.081-3.613.078-4.038.035-3.729.005-3.749.016-3.793.023-3.508.001-3.14-.02-2.999-.03-3.145-.033-3.133-.04-3.23-.046-3.951-.012-4.243.014-3.966-.003-4.31.023-4.408.037-4.076.01-4.141.02-4.17.03-4.103.032-3.822.018-3.42-.005-3.47-.003-3.632.007-3.535.014-3.38.01-3.344 0-3.271-.006-2.997-.022-3.003-.027-3.253-.02-3.408-.015-3.253-.03-3.127-.043-3.35-.045-3.56-.046-3.627-.042-3.66-.048-4.273-.027-4.872.015-4.616-.004-4.686-.006-3.96.042-3.478.012-4.447-.011-4.945.037-4.602.018-4.255-.017-4.738.027-4.989.1-4.377.073-3.816.006-3.44-.015-3.46-.02-3.618-.016-3.517-.027-3.463-.038-3.599-.039-3.601-.049-3.694-.057-4.35-.032-4.773.004-4.823.01-4.553-.019-4.623-.02-3.857.022-3.685.011-4.943.021-5.235.062-5.096.068-4.542.034-4.059-.004-4.12 0-4.31.015-4.196.014-4 0-4.015 0-3.858-.012-3.525-.036-3.592-.039-3.691-.045-3.905-.045-4.634-.001-4.486-.01-3.844-.065-4.343-.046-4.607-.046-3.71-.004-4.11.03-3.966.014-3.974.02-3.928.018-3.927.024-5.124.027-5.268.057-4.95.043-4.64.021-4.891.059-4.74.063-4.155.03-3.697.006-3.497-.016-3.79 0-4.03.014-3.987.015-3.689.002-3.537-.007-3.468-.014-3.43-.023-3.45-.028-3.632-.023-3.833 0-3.546-.015-3.575-.034-3.513-.05-3.707-.052-4.299-.031-4.271-.043-4.44-.042-4.946-.005-4.67-.033-4.456-.072-4.109.03-4.277.073-4.642-.026-4.627-.053-5.019-.038-3.988-.01-4.061-.006-5.51.006-4.433.045-3.922-.004-5.045-.027-5.204-.02-4.858-.072-4.714-.116-3.89-.08-4.941.084-4.93.1-4.393.014-5.76.016-5.375-.026-4.18-.004-4.446.031-4.234.006-2.822-.001-2.969.019-3.012.029-2.86.013-3.913-.02-5.417.008-5.763.073-5.491.067-5.277.048-5.06.036-4.34-.018-4.298-.04-4.964.03-5.213.094-4.727.056-4.063-.02-3.907-.037-4.34-.008-4.952.048-4.894.098-3.88.047-3.493-.018-3.728-.01-3.631-.02-4.149.017-4.571.057-4.188.04-3.867.022-3.847.027-3.429.006-3.179-.008-3.454.008-3.642.025-3.372.013-2.95-.01-2.822-.019-2.99-.016-3.048-.017-3.19-.014-3.466-.003-3.365-.007-3.342-.012-3.534-.003-4.224.001-4.428.017-3.779.019-3.6.012-3.994.047-4.06.063-3.552.038-3.177.021-2.929.011-2.982-.005-3.118-.038-3.092-.064-3.126-.067-2.422-.034-1.496-.133-1.216-.504-.931-.93-.504-1.217 0-1.317.504-1.217.931-.93 1.217-.504.658-.131.837-.003Z"/>
</svg>
