<svg stroke-linecap="round" stroke-linejoin="round" viewBox="-3955 -3452 852 400" width="852" height="400" xmlns="http://www.w3.org/2000/svg">
  <g fill="#1d1d1d" stroke-linecap="round">
    <path d="m2.8458-2.5764q2.8458.1277 6.3444.2241t7.2911.1679 8.3525.1245 10.1286.0915 11.9465.0671 13.4654.0489 14.5004.0357 14.9935.0259 15.1563.0189 15.4023.0136 15.7479.01 17.446.0072 19.936.0052 20.6842.0038 20.3136.0028 18.899.002 17.5844.0014 18.1511.0011 19.6901.0007 19.8767.0006 18.0521.0004 16.6649.0003 16.3006.0002 15.5694.0001 14.6922.0001 14.1047.0001 13.2606.0001 12.5895 0 12.7341 0 13.1277.0001 13.3487 0 13.1848 0 12.634 0 12.4167 0 12.4337 0 12.1833 0 11.8175 0 11.2165 0 10.3539 0 9.6568 0 9.0029 0 8.4817 0 8.2433 0 8.0019 0 8.1477 0 8.6263 0 8.9168 0 9.0248 0 9.2493 0 9.8761 0 10.3555 0 10.1842 0 9.8379 0 9.6079 0 9.4622 0 9.3679 0 9.3399 0 9.1112 0 8.553 0 8.1029 0 7.5329 0 6.7363 0 6.2092 0 5.9652 0 5.7408 0 5.4271 0 4.8642-.0014 4.1558-.0579 3.6356-.1235 3.1244-.1476 3.7627-.2224 3.938-.2561 3.3672-.2373.7607 1.3228-.5382-29.0266.8191-99.624.6786-155.6512.4096-86.8535.2283-.6708.4305-.5628.5877-.3958.6833-.1875.7074.0405.6574.2643.5387.4604.3634.6083.1502.6924-.0788.7042-.2995.6422-.4889.5129-.6271.3299-.6996.1124-.6989-.1168-.625-.3339-.4856-.516-.2955-.644-.0743-.7047.1545-.6915.3673-.606.5415-.4569.6591-.2602.7077-.036.6821.1918.5852.3995.4269.5655.2241.6723.0569.3541-.1704 86.4996-.2587 155.6735-.2667 99.6168-2.1006 31.8886-3.7124 1.3228-3.3672-.2373-3.938-.2561-3.7627-.2224-3.1244-.1476-3.6356-.1235-4.1558-.0579-4.8642-.0014-5.4271 0-5.7408 0-5.9652 0-6.2092 0-6.7363 0-7.5329 0-8.1029 0-8.553 0-9.1112 0-9.3399 0-9.3679 0-9.4622 0-9.6079 0-9.8379 0-10.1842 0-10.3555 0-9.8761 0-9.2493 0-9.0248 0-8.9168 0-8.6263 0-8.1477 0-8.0019 0-8.2433 0-8.4817 0-9.0029 0-9.6568 0-10.3539 0-11.2165 0-11.8175 0-12.1833 0-12.4337 0-12.4167 0-12.634 0-13.1848 0-13.3487 0-13.1277.0001-12.7341 0-12.5895 0-13.2606.0001-14.1047.0001-14.6922.0001-15.5694.0001-16.3006.0002-16.6649.0003-18.0521.0004-19.8767.0006-19.6901.0007-18.1511.0011-17.5844.0014-18.899.002-20.3136.0028-20.6842.0038-19.936.0052-17.446.0072-15.7479.01-15.4023.0136-15.1563.0189-14.9935.0259-14.5004.0357-13.4654.0489-11.9465.0671-10.1286.0915-8.3525.1245-7.2911.1679-6.3444.2241-3.3632.0249-.9561-.3961-.7318-.7318-.396-.9561.0001-1.0349.3961-.956.7318-.7318.9561-.3959.5173-.1029 2.8457.1278z" transform="translate(-3943.4428 -3065.7979)"/>
    <path d="m2.8458-2.5764q2.8458.1277 6.3444.2241t7.2911.1679 8.3636.1245 10.1348.0915 11.9544.0671 13.4808.0489 14.5024.0357 14.9923.0259 15.1735.0189 15.4362.0136 15.7534.01 17.4536.0072 19.9646.0052 20.7135.0038 20.3431.0028 18.9133.002 17.5766.0014 18.158.0011 19.7117.0007 19.8799.0006 18.0604.0004 16.7073.0003 16.3486.0002 15.5828.0001 14.7151.0001 14.1575.0001 13.29.0001 12.6035 0 12.7286 0 13.1157.0001 13.3554 0 13.1997 0 12.66 0 12.4422 0 12.4457 0 12.1611 0 11.7918 0 11.22 0 10.3803 0 9.687 0 9.0241 0 8.4736 0 8.2365 0 8.0292 0 8.1718 0 8.6219 0 8.9121 0 9.0356 0 9.2686 0 9.9068 0 10.3836 0 10.191 0 9.8351 0 9.5973 0 9.4564 0 9.3757 0 9.3555 0 9.133 0 8.5653 0 8.0963 0 7.5204 0 6.7427 0 6.1949 0 5.9484 0 5.787 0 5.4617 0 4.8634-.0003 4.1598-.0573 3.6423-.1232 3.1348-.147 3.7691-.2227 3.9349-.2564 3.3518-.2373.7617 1.3217-.5268-29.0276.8005-99.6236.6314-155.6508.3834-86.8535.228-.6707.4303-.5627.5874-.396.6831-.1876.7072.0403.6574.264.5387.4601.3635.608.1503.6923-.0785.704-.2993.6421-.4886.5129-.6269.3301-.6994.1126-.6987-.1166-.6249-.3336-.4857-.5157-.2956-.6438-.0745-.7045.1543-.6914.367-.6059.5412-.457.6589-.2603.7075-.0363.682.1916.5851.3993.427.5652.2242.672.057.354-.1443 86.4996-.2121 155.674-.2485 99.6171-2.1111 31.8876-3.7122 1.3217-3.3518-.2373-3.9349-.2564-3.7691-.2227-3.1348-.147-3.6423-.1232-4.1598-.0573-4.8634-.0003-5.4617 0-5.787 0-5.9484 0-6.1949 0-6.7427 0-7.5204 0-8.0963 0-8.5653 0-9.133 0-9.3555 0-9.3757 0-9.4564 0-9.5973 0-9.8351 0-10.191 0-10.3836 0-9.9068 0-9.2686 0-9.0356 0-8.9121 0-8.6219 0-8.1718 0-8.0292 0-8.2365 0-8.4736 0-9.0241 0-9.687 0-10.3803 0-11.22 0-11.7918 0-12.1611 0-12.4457 0-12.4422 0-12.66 0-13.1997 0-13.3554 0-13.1157.0001-12.7286 0-12.6035 0-13.29.0001-14.1575.0001-14.7151.0001-15.5828.0001-16.3486.0002-16.7073.0003-18.0604.0004-19.8799.0006-19.7117.0007-18.158.0011-17.5766.0014-18.9133.002-20.3431.0028-20.7135.0038-19.9646.0052-17.4536.0072-15.7534.01-15.4362.0136-15.1735.0189-14.9923.0259-14.5024.0357-13.4808.0489-11.9544.0671-10.1348.0915-8.3636.1245-7.2911.1679-6.3444.2241-3.3632.0249-.9561-.3961-.7318-.7318-.396-.9561.0001-1.0349.3961-.956.7318-.7318.9561-.3959.5173-.1029 2.8457.1278z" transform="matrix(-1 0 0 -1 -3117.3804 -3438.0453)"/>
  </g>
</svg>
