<svg xmlns="http://www.w3.org/2000/svg" direction="ltr" width="200" height="12" viewBox="-5 -5 210 12" stroke-linecap="round" stroke-linejoin="round" style="background-color: rgb(249, 250, 251);" encoding="UTF-8&quot;"><defs/><g opacity="1"><path d="M1.2028,-1.939 Q2.4055,-1.8951 3.4437,-1.8842 T5.4731,-1.87 7.4528,-1.8644 9.4032,-1.863 11.3353,-1.8639 13.2618,-1.8653 15.9461,-1.8852 19.1974,-1.9312 22.495,-1.9567 25.3359,-1.9346 27.5209,-1.8906 29.8942,-1.8256 32.4976,-1.7344 35.2855,-1.6274 38.3058,-1.5139 41.5574,-1.4159 44.9422,-1.3436 48.3407,-1.2905 51.5992,-1.2516 54.6769,-1.2233 58.2344,-1.2027 61.9406,-1.1877 65.0267,-1.1896 67.7809,-1.223 70.3472,-1.2782 72.8039,-1.3358 75.2054,-1.3876 77.4701,-1.4442 79.6532,-1.4986 81.8984,-1.5344 84.1821,-1.5577 86.4914,-1.5726 88.8146,-1.5824 91.1477,-1.5888 93.5134,-1.5891 96.015,-1.5678 98.6883,-1.5225 101.4486,-1.4719 104.2587,-1.4243 107.0484,-1.3924 109.6453,-1.4006 111.9418,-1.45 114.0084,-1.5153 115.9494,-1.5795 118.5473,-1.6731 121.6399,-1.7904 124.4471,-1.8884 127.1444,-1.9655 130.0826,-2.0068 133.4465,-2.0082 136.9749,-1.9967 140.5197,-1.9872 144.0479,-1.9821 147.3595,-1.9958 150.7431,-1.9928 154.327,-1.9735 157.7929,-1.9753 160.8893,-2.0038 163.5381,-2.0772 165.904,-2.1731 168.1764,-2.2483 170.6758,-2.2944 173.1377,-2.331 175.2498,-2.3723 177.2841,-2.4064 179.4344,-2.409 181.7704,-2.3864 184.1833,-2.3818 186.3554,-2.4142 188.4564,-2.4505 190.5549,-2.4796 192.5259,-2.5094 194.5299,-2.5334 196.5977,-2.5473 198.0473,-2.4846 198.8194,-2.2244 199.4679,-1.7314 199.9251,-1.0571 200.143,-0.2721 200.0988,0.5414 199.7972,1.2982 199.2698,1.919 198.5717,2.339 197.7761,2.514 196.9662,2.4259 196.2268,2.0837 195.6355,1.5234 195.254,0.8036 195.1223,-0.0004 195.2542,-0.8043 195.6359,-1.524 196.2275,-2.0841 196.9669,-2.4261 197.7768,-2.514 198.5724,-2.3387 199.2704,-1.9186 199.7976,-1.2975 200.099,-0.5406 200.1429,0.2728 199.9247,1.0578 199.4674,1.7319 198.8187,2.2248 198.0466,2.4847 197.6396,2.5513 196.5977,2.5473 194.5299,2.5334 192.5259,2.5094 190.5549,2.4796 188.4564,2.4505 186.3554,2.4142 184.1833,2.3818 181.7704,2.3864 179.4344,2.409 177.2841,2.4064 175.2498,2.3723 173.1377,2.331 170.6758,2.2944 168.1764,2.2483 165.904,2.1731 163.5381,2.0772 160.8893,2.0038 157.7929,1.9753 154.327,1.9735 150.7431,1.9928 147.3595,1.9958 144.0479,1.9821 140.5197,1.9872 136.9749,1.9967 133.4465,2.0082 130.0826,2.0068 127.1444,1.9655 124.4471,1.8884 121.6399,1.7904 118.5473,1.6731 115.9494,1.5795 114.0084,1.5153 111.9418,1.45 109.6453,1.4006 107.0484,1.3924 104.2587,1.4243 101.4486,1.4719 98.6883,1.5225 96.015,1.5678 93.5134,1.5891 91.1477,1.5888 88.8146,1.5824 86.4914,1.5726 84.1821,1.5577 81.8984,1.5344 79.6532,1.4986 77.4701,1.4442 75.2054,1.3876 72.8039,1.3358 70.3472,1.2782 67.7809,1.223 65.0267,1.1896 61.9406,1.1877 58.2344,1.2027 54.6769,1.2233 51.5992,1.2516 48.3407,1.2905 44.9422,1.3436 41.5574,1.4159 38.3058,1.5139 35.2855,1.6274 32.4976,1.7344 29.8942,1.8256 27.5209,1.8906 25.3359,1.9346 22.495,1.9567 19.1974,1.9312 15.9461,1.8852 13.2618,1.8653 11.3353,1.8639 9.4032,1.863 7.4528,1.8644 5.4731,1.87 3.4437,1.8842 1.2028,1.939 -0.3794,1.9073 -1.0804,1.6169 -1.617,1.0804 -1.9073,0.3793 -1.9073,-0.3795 -1.6169,-1.0805 -1.0803,-1.617 -0.3792,-1.9074 0.0001,-1.9828 1.2028,-1.939 Z" fill="#1d1d1d" stroke-linecap="round"/></g></svg>
