<svg xmlns="http://www.w3.org/2000/svg" direction="ltr" width="247.82000000000016" height="64.51999999999998" viewBox="-3879.0690527499273 -3847.6238207895835 247.82000000000016 64.51999999999998" stroke-linecap="round" stroke-linejoin="round" style="background-color: rgb(249, 250, 251);" encoding="UTF-8&quot;"><defs/><g transform="matrix(1, 0, 0, 1, -3847.0691, -3815.1038)" opacity="1"><path d="M1.2164,-1.8007 Q2.4328,-1.7698 3.6417,-1.7466 T6.0669,-1.7039 8.5941,-1.653 11.2905,-1.5833 14.102,-1.5078 16.9628,-1.4411 19.7166,-1.4108 22.3256,-1.4142 24.8897,-1.4241 27.4043,-1.4393 29.876,-1.4575 32.3401,-1.4727 34.8931,-1.4701 37.5219,-1.456 40.3214,-1.4122 43.6341,-1.3428 47.4516,-1.2899 51.4518,-1.2513 55.3815,-1.2231 59.1843,-1.2025 62.8474,-1.1876 66.2935,-1.1767 69.4577,-1.1689 72.3363,-1.1861 75.0113,-1.2338 77.4753,-1.2999 79.69,-1.3812 81.8391,-1.4523 84.0794,-1.4984 86.4035,-1.524 88.7802,-1.5369 91.1766,-1.5442 93.7039,-1.5287 96.4299,-1.4829 99.2712,-1.4263 102.1482,-1.3769 104.9222,-1.3592 107.5287,-1.3752 109.9961,-1.4086 112.2673,-1.4597 114.3949,-1.5171 116.5713,-1.5569 118.7924,-1.5834 120.9132,-1.6161 122.9133,-1.6555 124.8453,-1.6942 126.7333,-1.7299 128.5995,-1.7612 131.1752,-1.8137 134.214,-1.8931 136.8082,-1.9721 139.2559,-2.038 141.9264,-2.0764 144.3165,-2.0683 146.3492,-2.0209 148.4147,-1.9775 150.3756,-1.955 152.2816,-1.9427 154.1622,-1.9354 156.7929,-1.9441 159.9293,-1.9809 162.5712,-2.0362 165.0921,-2.0839 167.7867,-2.1121 170.4666,-2.1347 172.8465,-2.166 174.868,-2.2044 176.852,-2.2682 179.0112,-2.4865 181.1795,-2.7021 182.8908,-2.8289 183.9453,-2.8932 184.6966,-2.729 185.356,-2.3334 185.8547,-1.748 186.1403,-1.0341 186.1829,-0.2663 185.9782,0.475 185.5475,1.112 184.936,1.5782 184.2076,1.8247 183.4386,1.8257 182.7095,1.5811 182.0967,1.1166 181.6644,0.4806 181.4577,-0.2601 181.4984,-1.028 181.7821,-1.7427 182.2792,-2.3294 182.9377,-2.7267 183.6885,-2.8929 184.453,-2.8107 185.1513,-2.4886 185.7102,-1.9604 186.0712,-1.2815 186.1965,-0.5228 186.073,0.2362 185.7136,0.9161 185.1559,1.4455 184.4583,1.7692 184.0834,1.8738 183.1741,1.9624 181.3237,2.0455 179.2133,2.1582 176.9294,2.25 174.868,2.2044 172.8465,2.166 170.4666,2.1347 167.7867,2.1121 165.0921,2.0839 162.5712,2.0362 159.9293,1.9809 156.7929,1.9441 154.1622,1.9354 152.2816,1.9427 150.3756,1.955 148.4147,1.9775 146.3492,2.0209 144.3165,2.0683 141.9264,2.0764 139.2559,2.038 136.8082,1.9721 134.214,1.8931 131.1752,1.8137 128.5995,1.7612 126.7333,1.7299 124.8453,1.6942 122.9133,1.6555 120.9132,1.6161 118.7924,1.5834 116.5713,1.5569 114.3949,1.5171 112.2673,1.4597 109.9961,1.4086 107.5287,1.3752 104.9222,1.3592 102.1482,1.3769 99.2712,1.4263 96.4299,1.4829 93.7039,1.5287 91.1766,1.5442 88.7802,1.5369 86.4035,1.524 84.0794,1.4984 81.8391,1.4523 79.69,1.3812 77.4753,1.2999 75.0113,1.2338 72.3363,1.1861 69.4577,1.1689 66.2935,1.1767 62.8474,1.1876 59.1843,1.2025 55.3815,1.2231 51.4518,1.2513 47.4516,1.2899 43.6341,1.3428 40.3214,1.4122 37.5219,1.456 34.8931,1.4701 32.3401,1.4727 29.876,1.4575 27.4043,1.4393 24.8897,1.4241 22.3256,1.4142 19.7166,1.4108 16.9628,1.4411 14.102,1.5078 11.2905,1.5833 8.5941,1.653 6.0669,1.7039 3.6417,1.7466 1.2164,1.8007 -0.3505,1.7619 -0.998,1.4936 -1.4937,0.998 -1.7619,0.3504 -1.7619,-0.3506 -1.4936,-0.9981 -0.9979,-1.4937 -0.3503,-1.7619 0.0001,-1.8316 1.2164,-1.8007 Z" fill="#1d1d1d" stroke-linecap="round"/></g></svg>