<svg xmlns="http://www.w3.org/2000/svg" width="226.31" height="64.44" stroke-linecap="round" stroke-linejoin="round" style="background-color:#f9fafb" viewBox="-3878.576 -3826.162 226.31 64.44"><path fill="#1d1d1d" d="m-3845.415-3796.023 2.149.025q1.077.012 2.417.064t2.959.128 3.41.13 3.874.098 4.355.073 4.757.053 5.164.038 5.362.028 5.243.021 5.095.015 4.965.01 4.815.009 4.915.005 5.124.005 5.202.003 5.241.002 4.914.001 4.214.001 3.667.001 3.319.001 3.113 0 2.998-.006 2.933-.01 3.077-.002 3.142.005 2.878-.013 2.736.026 2.76.1 2.669.076 2.547.018 2.441-.015 2.27-.041 2.066-.06 2.757-.096 3.434-.116 3.35-.087 3.435-.054 3.495-.034 3.413-.03 3.067-.046 2.599-.06 2.173-.06 2.076-.069 2.064-.076 1.73-.052 1.134.045.698.235.586.446.413.61.197.71-.04.735-.272.684-.477.562-.631.38-.72.158-.732-.08-.668-.31-.535-.506-.345-.65-.119-.728.12-.727.344-.65.535-.507.669-.309.732-.08.72.16.63.379.477.561.273.685.04.735-.198.71-.414.61-.586.445-.698.235-.368.06-.765-.015-1.73-.052-2.064-.076-2.076-.069-2.173-.06-2.599-.06-3.067-.045-3.413-.031-3.496-.034-3.435-.055-3.352-.089-3.439-.123-2.763-.11-2.073-.077-2.284-.076-2.466-.08-2.59-.098-2.68-.138-2.707-.152-2.685-.108-2.868-.036-3.142.006-3.077-.002-2.933-.011-2.998-.006-3.113 0-3.32 0-3.666.002-4.214 0-4.914.002-5.241.003-5.202.003-5.124.004-4.915.005-4.815.008-4.965.011-5.095.015-5.243.02-5.362.029-5.164.039-4.757.053-4.355.072-3.874.097-3.41.132-2.959.127-2.417.064-2.149.025-1.43-.058-.662-.274-.507-.507-.274-.663 0-.717.274-.663.507-.507.663-.274.358-.071 1.071.013Z"/></svg>
