<svg xmlns="http://www.w3.org/2000/svg" direction="ltr" width="201.67000000000007" height="64.19000000000005" viewBox="-3880.0836746730033 -3748.477993958575 201.67000000000007 64.19000000000005" stroke-linecap="round" stroke-linejoin="round" style="background-color: rgb(249, 250, 251);" encoding="UTF-8&quot;"><defs/><g transform="matrix(1, 0, 0, 1, -3848.0837, -3716.478)" opacity="1"><path d="M2.2172,-1.7176 Q4.4344,-1.6324 6.2171,-1.5682 T10.1308,-1.4562 14.1041,-1.3733 17.6289,-1.3122 21.2649,-1.2675 25.2023,-1.2349 29.2703,-1.2112 33.6069,-1.1939 37.8906,-1.1813 41.9412,-1.1722 45.9756,-1.1655 49.9535,-1.1607 53.6692,-1.1573 57.1303,-1.1547 60.6863,-1.1529 64.3757,-1.1516 67.9065,-1.1506 71.2441,-1.1499 74.5215,-1.1494 77.6571,-1.149 80.5609,-1.1678 83.2974,-1.2104 85.9424,-1.257 88.4649,-1.3102 90.8296,-1.3723 93.1582,-1.4251 95.5555,-1.457 98.0039,-1.4746 100.4803,-1.484 102.8857,-1.5013 105.1548,-1.5335 107.3448,-1.5686 109.4259,-1.6086 111.4475,-1.6473 113.4865,-1.6767 115.4466,-1.7084 117.3249,-1.7425 119.2471,-1.7659 121.2205,-1.7799 123.1719,-1.7937 125.1386,-1.8033 127.0886,-1.8129 129.631,-1.8552 132.5021,-1.931 135.2166,-1.9807 137.2529,-1.9489 138.1823,-1.8243 138.7986,-1.5553 139.2969,-1.1036 139.6247,-0.5164 139.748,0.1448 139.6536,0.8107 139.3516,1.4116 138.8735,1.8846 138.2694,2.1801 137.6026,2.2674 136.9428,2.1371 136.3591,1.8029 135.9127,1.2999 135.6503,0.6807 135.5993,0.0101 135.7652,-0.6417 136.1305,-1.2064 136.657,-1.6249 137.2895,-1.8533 137.9619,-1.8679 138.6037,-1.6669 139.1477,-1.2716 139.5371,-0.7232 139.7309,-0.0792 139.709,0.593 139.4736,1.2229 139.0494,1.7448 138.4807,2.1038 137.8271,2.2625 137.4877,2.2883 136.8908,2.2251 135.0365,2.0669 132.5021,1.931 129.631,1.8552 127.0886,1.8129 125.1386,1.8033 123.1719,1.7937 121.2205,1.7799 119.2471,1.7659 117.3249,1.7425 115.4466,1.7084 113.4865,1.6767 111.4475,1.6473 109.4259,1.6086 107.3448,1.5686 105.1548,1.5335 102.8857,1.5013 100.4803,1.484 98.0039,1.4746 95.5555,1.457 93.1582,1.4251 90.8296,1.3723 88.4649,1.3102 85.9424,1.257 83.2974,1.2104 80.5609,1.1678 77.6571,1.149 74.5215,1.1494 71.2441,1.1499 67.9065,1.1506 64.3757,1.1516 60.6863,1.1529 57.1303,1.1547 53.6692,1.1573 49.9535,1.1607 45.9756,1.1655 41.9412,1.1722 37.8906,1.1813 33.6069,1.1939 29.2703,1.2112 25.2023,1.2349 21.2649,1.2675 17.6289,1.3122 14.1041,1.3733 10.1308,1.4562 6.2171,1.5682 2.2172,1.7176 -0.345,1.7342 -0.9824,1.4701 -1.4702,0.9823 -1.7342,0.3449 -1.7341,-0.345 -1.4701,-0.9824 -0.9822,-1.4702 -0.3448,-1.7342 0.0001,-1.8028 2.2172,-1.7176 Z" fill="#1d1d1d" stroke-linecap="round"/></g></svg>