<svg xmlns="http://www.w3.org/2000/svg" width="188" height="6" stroke-linecap="round" stroke-linejoin="round" viewBox="-3849.6 -3741 188 6" style="background-color: #fff;"><path fill="#1d1d1d" d="M-3845.612-3740.033q1.071.014 2.076.016t2.105.017 2.382.055 2.728.106 3.031.125 3.232.106 3.332.078 3.36.058 3.41.042 3.482.03 3.863.023 4.415.016 4.579.012 4.493.008 4.167.007 3.871.004 4.002.003 4.35.003 4.39.002 3.972 0 3.669.002 3.597 0 3.43 0 3.242.001 3.11 0 2.914-.019 2.77-.037 2.805-.02 2.897 0 2.943.01 2.91 0 2.792-.02 2.742-.025 2.74-.018 2.682-.024 2.603-.03 2.47-.043 2.278-.058 2.128-.063 1.985-.064 2.759-.088 3.615-.092 2.775-.045 1.964-.011 1.992-.007 2.046.001 2.186.02 2.294.03 2.252.018 2.169.003 2.12-.004 2.083-.007 2.064-.009 2.06-.007 2.005-.012 2.757-.036 3.267-.067 2.794-.077 2.514-.069 2.485-.079 2.292-.09 1.693-.149 1.05-.088.707.15.624.369.473.548.273.67.045.722-.188.7-.402.602-.573.442-.684.237-.724.006-.687-.226-.58-.434-.411-.595-.2-.697.034-.723.263-.674.464-.555.618-.379.705-.16.72.072.66.299.53.494.343.636.123.714-.112.715-.334.642-.521.502-.655.31-.352.1-.944.085-1.956.041-2.294-.09-2.485-.079-2.514-.069-2.794-.076-3.267-.067-2.757-.037-2.006-.012-2.06-.007-2.063-.008-2.084-.008-2.12-.003-2.168.003-2.252.018-2.294.03-2.186.019-2.046.001-1.992-.006-1.964-.012-2.775-.045-3.615-.092-2.76-.088-1.983-.064-2.13-.062-2.277-.058-2.47-.043-2.603-.03-2.682-.024-2.74-.019-2.742-.024-2.792-.021-2.91 0-2.943.01-2.897.001-2.806-.02-2.769-.038-2.915-.02-3.109.001-3.242 0-3.43.001-3.597 0-3.67.001-3.971.002-4.39.001-4.35.003-4.002.003-3.871.005-4.167.006-4.493.008-4.579.012-4.415.017-3.863.022-3.482.03-3.41.043-3.36.057-3.332.078-3.232.106-3.03.126-2.73.105-2.381.055-2.105.017-2.076.016-1.43-.058-.664-.275-.507-.507-.275-.664 0-.718.275-.663.508-.508.663-.275.359-.071 1.071.013Z"/></svg>
