<svg xmlns="http://www.w3.org/2000/svg" direction="ltr" width="213.9699999999998" height="64.94000000000005" viewBox="-3879.745240095483 -3730.537393554202 213.9699999999998 64.94000000000005" stroke-linecap="round" stroke-linejoin="round" style="background-color: rgb(249, 250, 251);" encoding="UTF-8&quot;"><defs/><g transform="matrix(1, 0, 0, 1, -3847.7452, -3698.5374)" opacity="1"><path d="M0.7943,-2.1007 Q1.5886,-2.0984 2.971,-2.1089 T5.673,-2.131 7.9611,-2.1191 10.5819,-2.0874 13.9955,-2.0632 17.4975,-2.0375 20.2146,-2.0126 22.2005,-1.9811 24.186,-1.9551 26.9818,-1.9443 30.5645,-1.9472 33.9874,-1.9628 37.1206,-1.9953 40.0777,-2.0306 43.0101,-2.0582 45.7982,-2.0878 48.4504,-2.1178 50.9308,-2.149 53.3518,-2.1755 56.1044,-2.109 59.162,-1.9488 62.5646,-1.8077 66.1789,-1.729 69.4962,-1.7119 72.4032,-1.7337 74.8874,-1.7713 77.1819,-1.7108 79.6414,-1.589 82.1793,-1.5421 84.4046,-1.5037 87.0207,-1.4568 90.124,-1.4452 93.0466,-1.4513 95.9094,-1.4601 98.6385,-1.4754 101.1477,-1.4989 103.4595,-1.5268 105.5988,-1.5555 107.9174,-1.5938 110.5622,-1.6339 112.8936,-1.6011 114.994,-1.4897 117.3117,-1.4056 119.5841,-1.3818 122.0697,-1.3889 124.5422,-1.3991 126.9275,-1.4111 129.4243,-1.4341 131.6684,-1.4656 133.8715,-1.5044 136.1759,-1.5388 138.3053,-1.5578 140.4005,-1.5687 142.6737,-1.581 144.7765,-1.5929 146.6909,-1.6131 148.3157,-1.7802 149.4141,-2.0244 150.2365,-2.0718 151.031,-1.8542 151.7144,-1.3943 152.2151,-0.7402 152.4808,0.0395 152.4836,0.8633 152.2233,1.6448 151.727,2.3023 151.0468,2.7669 150.2538,2.9899 149.4311,2.9481 148.6648,2.6458 148.0352,2.1146 147.6082,1.4102 147.4284,0.6063 147.5148,-0.2129 147.8582,-0.9617 148.4227,-1.5616 149.1492,-1.9498 149.9617,-2.0858 150.775,-1.9552 151.5041,-1.5717 152.0725,-0.9755 152.4208,-0.229 152.5125,0.5896 152.338,1.3947 151.9156,2.1019 151.2894,2.6372 150.9329,2.8534 150.6084,2.9863 148.954,3.3133 146.6909,3.4931 144.7765,3.4729 142.6737,3.461 140.4005,3.4487 138.3053,3.4378 136.1759,3.4188 133.8715,3.3844 131.6684,3.3456 129.4242,3.314 126.927,3.2909 124.5405,3.2782 122.5207,3.2694 120.5834,3.2522 118.4476,3.2331 115.8339,3.2071 113.1445,3.0903 110.5622,2.9739 107.9174,2.9338 105.5988,2.8955 103.4595,2.8668 101.1476,2.8389 98.6385,2.8153 95.9091,2.7999 93.0457,2.7905 90.1211,2.7826 87.0127,2.7883 84.382,2.8252 82.1054,2.8301 79.3884,2.7546 76.9759,2.5909 74.8765,2.4552 72.4008,2.4117 69.4893,2.385 66.1573,2.386 63.4397,2.4043 61.5495,2.4189 58.9478,2.3696 55.9521,2.2494 53.3518,2.1755 50.9308,2.149 48.4504,2.1178 45.7982,2.0878 43.0101,2.0582 40.0777,2.0306 37.1206,1.9953 33.9874,1.9628 30.5645,1.9472 26.9818,1.9443 24.186,1.9551 22.2005,1.9811 20.2146,2.0126 17.4975,2.0375 13.9955,2.0632 10.5819,2.0874 7.9611,2.1191 5.673,2.131 2.971,2.1089 0.7943,2.1007 -0.4024,2.0229 -1.1459,1.7149 -1.715,1.1459 -2.023,0.4023 -2.0229,-0.4025 -1.7149,-1.146 -1.1458,-1.7151 -0.4022,-2.023 0.0001,-2.103 0.7943,-2.1007 Z" fill="#1d1d1d" stroke-linecap="round"/></g></svg>