<svg xmlns="http://www.w3.org/2000/svg" direction="ltr" width="279.5500000000002" height="64.92000000000007" viewBox="-3879.3935766746627 -3807.345709634566 279.5500000000002 64.92000000000007" stroke-linecap="round" stroke-linejoin="round" style="background-color: rgb(249, 250, 251);" encoding="UTF-8&quot;"><defs/><g transform="matrix(1, 0, 0, 1, -3847.3936, -3774.9957)" opacity="1"><path d="M0.8102,-2.0533 Q1.6203,-2.0533 3.2407,-2.0534 T6.2683,-2.0651 8.6774,-2.0545 10.7641,-2.0024 12.9726,-1.9425 15.2499,-1.8835 17.5602,-1.8309 19.9611,-1.7741 22.6226,-1.682 25.4627,-1.5768 28.3027,-1.4971 31.2585,-1.4211 34.3364,-1.3474 37.3699,-1.2945 40.3406,-1.2606 43.2792,-1.2423 46.0731,-1.2548 48.5181,-1.3166 50.6431,-1.4035 52.6342,-1.4851 54.5545,-1.5569 57.3026,-1.6465 60.6705,-1.7562 63.9037,-1.8407 67.3867,-1.8816 70.2306,-1.8817 72.2977,-1.8634 74.3026,-1.8558 76.2145,-1.8601 78.9856,-1.8742 81.8038,-1.8807 83.8537,-1.8645 85.9803,-1.7942 88.1467,-1.629 90.3226,-1.4481 92.4798,-1.3305 94.7765,-1.2413 97.2066,-1.1655 99.6362,-1.1147 102.0343,-1.0841 104.2679,-1.0848 106.2775,-1.1138 108.8662,-1.1819 112.0538,-1.2711 115.1845,-1.3376 118.4815,-1.3728 121.1587,-1.3755 123.1541,-1.3541 125.2264,-1.3274 127.3091,-1.3043 129.4609,-1.2763 131.5937,-1.256 133.5959,-1.2555 135.4995,-1.2661 138.1391,-1.2967 141.4019,-1.3471 144.709,-1.3786 148.2206,-1.3862 151.7579,-1.3894 155.1861,-1.4008 158.2979,-1.4324 161.26,-1.4657 164.0191,-1.501 166.4973,-1.5431 169.0465,-1.5718 171.7985,-1.582 174.8887,-1.5652 177.5383,-1.5242 179.586,-1.4706 182.3366,-1.4415 185.7003,-1.4536 188.8237,-1.6034 191.8636,-1.8168 194.8383,-1.9276 197.2001,-2.0751 199.2232,-2.3148 201.2346,-2.4949 203.2261,-2.5943 205.3278,-2.679 207.4403,-2.7451 209.5092,-2.7959 211.5548,-2.8387 213.7279,-2.8755 215.219,-2.8916 215.9557,-2.8248 216.7247,-2.5656 217.3707,-2.0746 217.8261,-1.4029 218.0431,-0.621 217.9991,0.1892 217.6987,0.943 217.1734,1.5615 216.478,1.9798 215.6855,2.1541 214.8788,2.0663 214.1424,1.7255 213.5534,1.1674 213.1734,0.4504 213.0422,-0.3504 213.1736,-1.1511 213.5538,-1.868 214.143,-2.4259 214.8796,-2.7665 215.6863,-2.8541 216.4787,-2.6795 217.1739,-2.261 217.6991,-1.6424 217.9993,-0.8885 218.043,-0.0782 217.8257,0.7036 217.3702,1.3751 216.724,1.866 215.955,2.1249 215.5496,2.1913 214.3595,2.18 212.1714,2.1498 210.1689,2.1101 208.1266,2.0633 206.0391,2.004 203.9737,1.939 201.7698,1.9093 199.6518,1.9822 197.4929,2.1337 194.9193,2.2154 192.1186,2.264 189.0454,2.4357 185.7275,2.5709 182.3366,2.5815 179.586,2.6106 177.5383,2.6642 174.8887,2.7052 171.7985,2.722 169.0465,2.7118 166.4973,2.6831 164.0191,2.641 161.26,2.6057 158.2979,2.5724 155.1861,2.5408 151.7579,2.5294 148.2206,2.5262 144.709,2.5186 141.4019,2.4871 138.1391,2.4367 135.4995,2.4061 133.5959,2.3955 131.5937,2.396 129.4609,2.4163 127.3091,2.4443 125.2264,2.4674 123.1541,2.4941 121.1587,2.5155 118.4814,2.5128 115.1843,2.4773 112.053,2.4102 108.864,2.319 106.2733,2.2476 104.2611,2.2134 102.0226,2.2033 99.6145,2.2166 97.1662,2.2358 94.6952,2.2535 92.3226,2.2367 90.0604,2.1599 87.8922,2.0264 85.8857,1.8986 83.8535,1.8645 81.8038,1.8807 78.9856,1.8742 76.2145,1.8601 74.3026,1.8558 72.2977,1.8634 70.2306,1.8817 67.3867,1.8816 63.9037,1.8407 60.6705,1.7562 57.3026,1.6465 54.5545,1.5569 52.6342,1.4851 50.6431,1.4035 48.5181,1.3166 46.0731,1.2548 43.2792,1.2423 40.3406,1.2606 37.3699,1.2945 34.3364,1.3474 31.2585,1.4211 28.3027,1.4971 25.4627,1.5768 22.6226,1.682 19.9611,1.7741 17.5602,1.8309 15.2499,1.8835 12.9726,1.9425 10.7641,2.0024 8.6774,2.0545 6.2683,2.0651 3.2407,2.0534 0.8102,2.0533 -0.3929,1.9751 -1.1189,1.6744 -1.6745,1.1188 -1.9751,0.3928 -1.9751,-0.393 -1.6744,-1.1189 -1.1187,-1.6745 -0.3927,-1.9752 0.0001,-2.0533 0.8102,-2.0533 Z" fill="#1d1d1d" stroke-linecap="round"/></g></svg>