<svg xmlns="http://www.w3.org/2000/svg" direction="ltr" width="246.1500000000001" height="64.19000000000005" viewBox="-3878.6830816859847 -3770.3598111814636 246.1500000000001 64.19000000000005" stroke-linecap="round" stroke-linejoin="round" style="background-color: rgb(249, 250, 251);" encoding="UTF-8&quot;"><defs/><g transform="matrix(1, 0, 0, 1, -3846.6831, -3738.1698)" opacity="1"><path d="M1.0711,-1.8629 Q2.1423,-1.8494 3.1471,-1.8467 T5.2521,-1.8297 7.634,-1.7747 10.3622,-1.6695 13.3931,-1.5441 16.6256,-1.4383 19.9567,-1.36 23.3169,-1.3025 26.7269,-1.2605 30.2095,-1.2298 34.0722,-1.2074 38.4874,-1.1911 43.0659,-1.1793 47.5589,-1.1707 51.726,-1.1645 55.5971,-1.16 59.5993,-1.1567 63.95,-1.1543 68.339,-1.1526 72.3108,-1.1513 75.98,-1.1504 79.577,-1.1498 83.0074,-1.1493 86.2492,-1.149 89.3586,-1.1487 92.2731,-1.1677 95.0426,-1.205 97.8486,-1.2259 100.745,-1.225 103.6884,-1.2153 106.5984,-1.2145 109.3905,-1.2355 112.1317,-1.2601 114.8723,-1.2786 117.5537,-1.3024 120.1572,-1.3328 122.6276,-1.3754 124.9049,-1.4334 127.0336,-1.496 129.0177,-1.5598 131.777,-1.6479 135.3925,-1.7402 138.1672,-1.7849 140.1315,-1.7964 142.1233,-1.8028 144.1688,-1.8017 146.3547,-1.7827 148.6492,-1.7527 150.9008,-1.7346 153.0699,-1.7315 155.1896,-1.7353 157.2731,-1.7426 159.3368,-1.751 161.3966,-1.7581 163.402,-1.77 166.1589,-1.8065 169.4262,-1.8735 172.2199,-1.9498 174.7339,-2.0191 177.2194,-2.0979 179.5112,-2.1882 181.2045,-2.3368 182.2533,-2.4248 182.9615,-2.2748 183.5847,-1.9066 184.0577,-1.3586 184.331,-0.6883 184.3759,0.0342 184.1878,0.7333 183.7863,1.3356 183.2135,1.7782 182.5293,2.0148 181.8055,2.0205 181.1177,1.7948 180.538,1.3612 180.127,0.7653 179.9279,0.0693 179.9614,-0.6538 180.2241,-1.3284 180.6884,-1.8837 181.3058,-2.2618 182.0115,-2.4229 182.7317,-2.3502 183.3911,-2.0514 183.9205,-1.5577 184.2645,-0.9207 184.3871,-0.2073 184.2755,0.5079 183.9414,1.1501 183.4197,1.652 182.7651,1.961 182.4128,2.0618 181.4694,2.1468 179.513,2.1882 177.2194,2.0979 174.7339,2.0191 172.2199,1.9498 169.4262,1.8735 166.1589,1.8065 163.402,1.77 161.3966,1.7581 159.3368,1.751 157.2731,1.7426 155.1896,1.7353 153.0699,1.7315 150.9008,1.7346 148.6492,1.7527 146.3547,1.7827 144.1688,1.8017 142.1233,1.8028 140.1315,1.7964 138.1672,1.7849 135.3925,1.7402 131.777,1.6479 129.0177,1.5598 127.0336,1.496 124.9049,1.4334 122.6276,1.3754 120.1572,1.3328 117.5537,1.3024 114.8723,1.2786 112.1317,1.2601 109.3905,1.2355 106.5984,1.2145 103.6884,1.2153 100.745,1.225 97.8486,1.2259 95.0426,1.205 92.2731,1.1677 89.3586,1.1487 86.2492,1.149 83.0074,1.1493 79.577,1.1498 75.98,1.1504 72.3108,1.1513 68.339,1.1526 63.95,1.1543 59.5993,1.1567 55.5971,1.16 51.726,1.1645 47.5589,1.1707 43.0659,1.1793 38.4874,1.1911 34.0722,1.2074 30.2095,1.2298 26.7269,1.2605 23.3169,1.3025 19.9567,1.36 16.6256,1.4383 13.3931,1.5441 10.3622,1.6695 7.634,1.7747 5.2521,1.8297 3.1471,1.8467 1.0711,1.8629 -0.359,1.805 -1.0225,1.5302 -1.5302,1.0224 -1.805,0.359 -1.805,-0.3591 -1.5301,-1.0226 -1.0223,-1.5303 -0.3589,-1.805 0.0001,-1.8764 1.0711,-1.8629 Z" fill="#1d1d1d" stroke-linecap="round"/></g></svg>